{"title":"Penny's Shadow (2011) DVDRip NL gesproken DutchReleaseTeam","uid":6764616,"size":739052600,"categoryP":"video","categoryS":"movies","magnet":"?xt=urn:btih:7bd15fd05965ad6bbbcfca5dc1c110589f19130d&amp;dn=Penny%5C%27s+Shadow+%282011%29+DVDRip+NL+gesproken+DutchReleaseTeam&amp;tr=udp%3A%2F%2Ftracker.openbittorrent.com%3A80&amp;tr=udp%3A%2F%2Fopen.demonii.com%3A1337&amp;tr=udp%3A%2F%2Ftracker.coppersurfer.tk%3A6969&amp;tr=udp%3A%2F%2Fexodus.desync.com%3A6969","seeders":11,"leechers":2,"uploader":"Koedje","files":-1,"time":1319323419,"description":" &lt;a href=&quot;http://img542.imageshack.us/img542/2503/pennyshadow.jpg&quot; rel=&quot;nofollow&quot; target=&quot;_NEW&quot;&gt;http://img542.imageshack.us/img542/2503/pennyshadow.jpg&lt;/a&gt;\n\n\nNederland\nAvontuur\n111 minuten\n\ngeregisseerd door Steven de Jong\nmet Levi van Kempen, Tanja Jess en Liza Sips\n\nLisa is zestien jaar en heeft een speciale band met paarden. In de zomer gaat ze samen met haar moeder en zusje Tess op vakantie naar Ameland. Tess neemt ook haar eigenwijze pony Rakker mee. Ze verblijven op de kampeerboerderij van de zeventienjarige Kai en zijn vader. Kai's moeder is jaren geleden overleden bij een ongeluk met haar geliefde paard Shadow. De zwarte hengst heeft het overleefd, maar is zwaar getraumatiseerd en onbetrouwbaar geworden. Kai zag het ongeluk gebeuren en heeft daardoor een moeilijke band met het paard. Lisa is ervan overtuigd dat ze kan helpen met Shadow, maar Kai wil hier niets van weten. Ze besluit om in het geheim toch het paard te gaan trainen en hem weer vertouwen in mensen te geven.\n\n\n\n\n\nScreenshots:\n &lt;a href=&quot;\nhttp://img825.imageshack.us/img825/3111/screenshot1hj.jpg&quot; rel=&quot;nofollow&quot; target=&quot;_NEW&quot;&gt;\nhttp://img825.imageshack.us/img825/3111/screenshot1hj.jpg&lt;/a&gt;\n &lt;a href=&quot;\nhttp://img15.imageshack.us/img15/7053/screenshot2rop.jpg&quot; rel=&quot;nofollow&quot; target=&quot;_NEW&quot;&gt;\nhttp://img15.imageshack.us/img15/7053/screenshot2rop.jpg&lt;/a&gt;\n &lt;a href=&quot;\nhttp://img15.imageshack.us/img15/6470/screenshot3ld.jpg&quot; rel=&quot;nofollow&quot; target=&quot;_NEW&quot;&gt;\nhttp://img15.imageshack.us/img15/6470/screenshot3ld.jpg&lt;/a&gt;\n\n\n\n\nINFO;\n\nVideo\nID                                       : 0\nFormat                                   : MPEG-4 Visual\nFormat profile                           : Advanced Simple@L5\nFormat settings, BVOP                    : 1\nFormat settings, QPel                    : No\nFormat settings, GMC                     : No warppoints\nFormat settings, Matrix                  : Custom\nCodec ID                                 : XVID\nCodec ID/Hint                            : XviD\nDuration                                 : 1h 39mn\nBit rate                                 : 858 Kbps\nWidth                                    : 608 pixels\nHeight                                   : 256 pixels\nDisplay aspect ratio                     : 2.40:1\nFrame rate                               : 25.000 fps\nColor space                              : YUV\nChroma subsampling                       : 4:2:0\nBit depth                                : 8 bits\nScan type                                : Progressive\nCompression mode                         : Lossy\nBits/(Pixel*Frame)                       : 0.220\nStream size                              : 610 MiB (87%)\nWriting library                          : XviD 64\n\nAudio\nID                                       : 1\nFormat                                   : MPEG Audio\nFormat version                           : Version 1\nFormat profile                           : Layer 3\nMode                                     : Joint stereo\nMode extension                           : MS Stereo\nCodec ID                                 : 55\nCodec ID/Hint                            : MP3\nDuration                                 : 1h 39mn\nBit rate mode                            : Variable\nBit rate                                 : 114 Kbps\nNominal bit rate                         : 128 Kbps\nChannel(s)                               : 2 channels\nSampling rate                            : 48.0 KHz\nCompression mode                         : Lossy\nStream size                              : 81.2 MiB (12%)\nAlignment                                : Aligned on interleaves\nInterleave, duration                     : 24 ms (0.60 video frame)\nInterleave, preload duration             : 161 ms\nWriting library                          : LAME3.98r\n\n\n\n &lt;a href=&quot;\nhttp://www.imdb.com/title/tt1864455/&quot; rel=&quot;nofollow&quot; target=&quot;_NEW&quot;&gt;\nhttp://www.imdb.com/title/tt1864455/&lt;/a&gt; &lt;a href=&quot;\nhttp://www.moviemeter.nl/film/72855&quot; rel=&quot;nofollow&quot; target=&quot;_NEW&quot;&gt;\nhttp://www.moviemeter.nl/film/72855&lt;/a&gt;\n\n\n\n\nDeze film wordt u aangeboden door het DutchReleaseTeam.\nVoor de reviews van de nieuwste films, muziek, series, games etc\nga dan eens naar http://www.hetmultimediacafe.be\n\nDutchReleaseteam = Hardcoded Dutch Subs","torrent":{"xt":"urn:btih:7bd15fd05965ad6bbbcfca5dc1c110589f19130d","amp;dn":"Penny%5C%27s+Shadow+%282011%29+DVDRip+NL+gesproken+DutchReleaseTeam","amp;tr":["udp%3A%2F%2Ftracker.openbittorrent.com%3A80","udp%3A%2F%2Fopen.demonii.com%3A1337","udp%3A%2F%2Ftracker.coppersurfer.tk%3A6969","udp%3A%2F%2Fexodus.desync.com%3A6969"],"infoHash":"7bd15fd05965ad6bbbcfca5dc1c110589f19130d","infoHashBuffer":{"type":"Buffer","data":[123,209,95,208,89,101,173,107,187,207,202,93,193,193,16,88,159,25,19,13]},"announce":[],"urlList":[]}}